# Blender 4.0.2
# www.blender.org
mtllib banana.mtl
o banana_lo
v -0.211521 1.770265 -3.511510
v -0.314068 4.499064 4.400027
v -0.215969 2.023388 -3.235041
v -0.318900 4.563232 3.542076
v 0.211521 1.770265 -3.511510
v 0.314068 4.499064 4.400028
v 0.215969 2.023387 -3.235040
v 0.318900 4.563232 3.542076
v -0.516598 0.910438 -2.720698
v -0.768986 0.343547 -0.912273
v -0.861586 0.353393 1.050952
v -0.755258 1.300551 2.963594
v -0.550415 2.989079 4.341614
v -0.574228 3.504329 2.971609
v -0.796824 2.512865 1.995181
v -0.871249 1.867051 0.624185
v -0.772079 1.679109 -0.926500
v -0.528810 1.773378 -2.417890
v 0.574228 3.504329 2.971609
v 0.796823 2.512865 1.995181
v 0.871248 1.867051 0.624185
v 0.772079 1.679109 -0.926500
v 0.528810 1.773378 -2.417890
v 0.550414 2.989079 4.341614
v 0.755258 1.300551 2.963594
v 0.861586 0.353393 1.050951
v 0.768986 0.343547 -0.912273
v 0.516598 0.910438 -2.720699
v -0.270252 5.655654 4.017376
v -0.271407 5.616582 3.557967
v 0.271407 5.616581 3.557966
v 0.270252 5.655654 4.017376
v -0.205751 5.982084 3.936401
v -0.206495 5.883654 3.598611
v 0.206495 5.883653 3.598610
v 0.205751 5.982084 3.936401
v 0.237153 5.033083 3.673817
v 0.233909 5.316914 3.628693
v 0.232986 5.322848 3.994658
v 0.236019 5.038452 4.041543
v -0.236019 5.038452 4.041543
v -0.232986 5.322847 3.994658
v -0.233909 5.316915 3.628695
v -0.237153 5.033083 3.673817
v -0.160431 2.037119 -3.313310
v -0.158337 1.853800 -3.519476
v 0.160431 2.037119 -3.313310
v 0.158337 1.853800 -3.519476
v -0.296727 1.902922 -2.980414
v 0.296727 1.902921 -2.980414
v 0.287743 1.453234 -3.320171
v -0.287743 1.453233 -3.320171
v -0.226617 1.969783 -3.156516
v 0.226617 1.969783 -3.156516
v 0.221068 1.664293 -3.449408
v -0.221068 1.664293 -3.449407
v -0.293899 1.896826 -3.373276
v -0.422696 3.903770 4.464911
v -0.435166 4.524373 3.960655
v -0.218538 1.994817 -3.198983
v 0.000000 2.070848 -3.183202
v 0.000000 4.585874 3.416795
v 0.218538 1.994817 -3.198983
v 0.293899 1.896826 -3.373276
v 0.435166 4.524373 3.960655
v 0.213713 1.722104 -3.479877
v 0.000000 1.722804 -3.563349
v 0.000000 4.485044 4.498367
v -0.393014 1.201541 -3.102190
v -0.667027 0.560816 -1.881621
v -0.842597 0.250604 0.070898
v -0.831088 0.734758 2.026418
v -0.661745 2.064141 3.800821
v -0.434807 4.064655 3.352042
v -0.699209 2.976765 2.517538
v -0.858902 2.141922 1.344206
v -0.844546 1.729207 -0.131717
v -0.675232 1.706612 -1.712875
v 0.434807 4.064655 3.352042
v 0.699208 2.976765 2.517538
v 0.858902 2.141922 1.344205
v 0.844546 1.729207 -0.131717
v 0.675232 1.706611 -1.712875
v 0.422696 3.903770 4.464911
v 0.661745 2.064141 3.800821
v 0.831088 0.734758 2.026418
v 0.842596 0.250604 0.070898
v 0.667027 0.560815 -1.881621
v -0.000000 0.748637 -2.777475
v -0.000000 0.094238 -0.909606
v -0.000000 0.085965 1.122920
v 0.000000 1.095277 3.107607
v -0.000000 2.892234 4.503813
v 0.718718 1.341908 -2.569294
v 1.059482 1.011657 -0.919387
v 1.191324 1.102041 0.842294
v 1.067056 1.916555 2.488756
v 0.773192 3.206773 3.648908
v 0.000000 1.935179 -2.361114
v 0.000000 1.929266 -0.929168
v -0.000000 2.155953 0.542826
v 0.000000 2.742422 1.792418
v -0.000000 3.619432 2.737021
v -0.718718 1.341908 -2.569294
v -1.059482 1.011657 -0.919387
v -1.191324 1.102041 0.842295
v -1.067056 1.916555 2.488757
v -0.773192 3.206773 3.648908
v -0.372390 5.635608 3.789264
v 0.000000 5.610489 3.467971
v 0.372390 5.635608 3.789263
v 0.000000 5.664206 4.099685
v 0.245070 5.469739 3.596856
v 0.256768 4.851210 4.116278
v -0.244131 5.480066 4.016845
v -0.258556 4.857798 3.675678
v -0.251070 5.955210 3.766738
v -0.000000 5.890642 3.561419
v 0.251070 5.955210 3.766738
v -0.000000 6.019805 3.971969
v 0.263770 5.773803 3.554837
v 0.262481 5.864376 3.990903
v -0.262481 5.864376 3.990902
v -0.263770 5.773803 3.554836
v 0.258556 4.857798 3.675677
v 0.230639 5.175296 3.654655
v 0.244131 5.480066 4.016845
v 0.229657 5.180826 4.013224
v -0.256768 4.851210 4.116278
v -0.229657 5.180826 4.013224
v -0.245070 5.469739 3.596856
v -0.230639 5.175296 3.654655
v -0.000000 5.035250 3.588541
v 0.000000 5.317970 3.546889
v -0.000000 5.041637 4.110092
v -0.000000 5.325861 4.063746
v -0.325305 5.034532 3.861541
v -0.320991 5.319013 3.814389
v 0.325305 5.034532 3.861542
v 0.320991 5.319013 3.814389
v -0.194251 1.948714 -3.419287
v -0.000000 2.060460 -3.293615
v 0.194251 1.948714 -3.419287
v 0.000000 1.836969 -3.544960
v -0.201798 1.810695 -3.532736
v 0.201798 1.810695 -3.532735
v 0.205639 2.045741 -3.269420
v -0.205639 2.045741 -3.269421
v -0.405065 1.838060 -2.741396
v 0.405065 1.838060 -2.741396
v 0.393014 1.201541 -3.102190
v -0.201689 1.618751 -3.388421
v -0.401824 1.678078 -3.150292
v 0.000000 1.987237 -2.916709
v 0.401823 1.678077 -3.150293
v -0.000000 1.368917 -3.383876
v -0.207449 1.917688 -3.123976
v 0.207449 1.917688 -3.123976
v 0.201689 1.618751 -3.388421
v -0.213713 1.722104 -3.479877
v -0.000000 1.607014 -3.504325
v 0.307784 1.817038 -3.302962
v 0.000000 2.027063 -3.101599
v -0.307784 1.817038 -3.302962
v -0.589533 3.993294 3.888295
v -0.000000 4.127837 3.168890
v 0.589533 3.993294 3.888295
v 0.000000 3.853608 4.602379
v 0.000000 1.766821 -3.582532
v 0.336326 5.478480 3.796207
v -0.000000 1.082193 -3.169839
v -0.000000 0.345979 -1.913261
v 0.000000 -0.017824 0.107894
v -0.000000 0.490914 2.135952
v 0.000000 1.914075 3.965597
v 0.548679 1.519800 -2.921793
v 0.922803 1.133713 -1.797248
v 1.159911 0.986222 -0.030558
v 1.161868 1.428237 1.695457
v 0.935656 2.512758 3.153411
v -0.000000 1.957407 -2.673747
v -0.000000 1.921448 -1.681235
v 0.000000 2.007113 -0.169504
v 0.000000 2.410758 1.210386
v 0.000000 3.152890 2.276844
v -0.548679 1.519800 -2.921793
v -0.922803 1.133713 -1.797248
v -1.159911 0.986222 -0.030558
v -1.161868 1.428237 1.695457
v -0.935656 2.512758 3.153412
v 0.362028 5.821105 3.773377
v -0.336326 5.478479 3.796206
v 0.000000 5.483648 4.090451
v -0.000000 5.469497 3.512816
v 0.000000 6.001957 3.765552
v -0.362028 5.821105 3.773377
v 0.000000 5.884988 4.071493
v 0.000000 5.758579 3.471024
v -0.000000 4.863038 3.580552
v 0.000000 5.176886 3.572803
v -0.000000 4.852352 4.191459
v -0.000000 5.183917 4.080445
v -0.354285 4.852941 3.900858
v -0.316453 5.177026 3.837170
v 0.354285 4.852942 3.900858
v 0.316453 5.177026 3.837170
v 0.000000 1.955545 -3.425361
v -0.000000 2.090257 -3.220195
v -0.280315 1.928539 -3.401363
v 0.280315 1.928539 -3.401363
v -0.281282 1.768219 -3.256198
v 0.000000 1.973739 -3.074393
v 0.281282 1.768219 -3.256199
v -0.000000 1.562701 -3.438004
v -0.000000 1.670970 -3.532545
v 0.297173 1.858460 -3.339430
v 0.000000 2.045951 -3.146316
v -0.297173 1.858460 -3.339430
v 0.285418 4.692860 4.302459
v -0.288728 4.714946 3.600016
v 0.288728 4.714946 3.600015
v -0.285418 4.692860 4.302459
v 0.000000 4.728887 3.489813
v -0.000000 4.686420 4.389219
v -0.394725 4.697518 3.957340
v 0.394725 4.697519 3.957341
vn -0.6859 -0.1533 0.7114
vn -0.6845 0.1023 0.7218
vn -0.9698 0.2352 0.0641
vn -0.9810 0.1582 0.1120
vn -0.6471 0.3072 0.6978
vn -0.9642 0.2625 0.0367
vn -0.7121 0.3817 -0.5892
vn -0.7386 0.4416 -0.5094
vn -0.7382 0.5070 -0.4450
vn -0.0000 0.5580 -0.8298
vn -0.0000 0.6759 -0.7370
vn -0.0000 0.4483 -0.8939
vn 0.7121 0.3817 -0.5892
vn 0.7386 0.4416 -0.5094
vn 0.7382 0.5070 -0.4450
vn 0.9698 0.2352 0.0641
vn 0.9810 0.1582 0.1120
vn 0.9642 0.2625 0.0367
vn 0.6471 0.3072 0.6978
vn 0.6845 0.1023 0.7218
vn 0.6859 -0.1533 0.7114
vn 0.3002 0.0226 0.9536
vn 0.3174 -0.2866 0.9039
vn 0.2733 0.2997 0.9141
vn -0.3002 0.0226 0.9536
vn -0.2733 0.2997 0.9141
vn -0.3174 -0.2866 0.9039
vn 0.6648 -0.3118 -0.6788
vn 0.3079 -0.4447 -0.8411
vn 0.2403 -0.0285 -0.9703
vn 0.5148 0.1086 -0.8504
vn -0.3079 -0.4447 -0.8411
vn -0.6648 -0.3118 -0.6788
vn -0.5148 0.1086 -0.8504
vn -0.2403 -0.0285 -0.9703
vn -0.1611 0.5951 -0.7874
vn -0.0820 0.5704 -0.8172
vn 0.0820 0.5704 -0.8172
vn 0.1611 0.5951 -0.7874
vn 0.6660 -0.0246 0.7456
vn 0.9967 -0.0806 -0.0029
vn 0.9847 -0.1741 -0.0055
vn 0.6401 -0.1214 0.7586
vn 0.6615 -0.1709 -0.7302
vn 0.6540 -0.2440 -0.7161
vn 0.6690 -0.1346 -0.7309
vn 0.9970 -0.0768 0.0074
vn 0.6695 0.0013 0.7428
vn 0.5881 -0.2222 -0.7776
vn 0.6227 -0.4342 -0.6510
vn 0.3125 -0.6447 -0.6977
vn 0.3061 -0.4235 -0.8526
vn 0.6378 -0.5925 -0.4921
vn 0.3084 -0.7989 -0.5164
vn -0.3125 -0.6447 -0.6977
vn -0.3084 -0.7989 -0.5164
vn -0.6378 -0.5925 -0.4921
vn -0.6227 -0.4342 -0.6510
vn -0.3061 -0.4235 -0.8526
vn -0.5881 -0.2222 -0.7776
vn 0.6512 -0.6932 -0.3089
vn 0.3051 -0.8972 -0.3192
vn 0.6562 -0.7344 -0.1735
vn 0.3030 -0.9378 -0.1697
vn -0.3051 -0.8972 -0.3192
vn -0.3030 -0.9378 -0.1697
vn -0.6562 -0.7344 -0.1735
vn -0.6512 -0.6932 -0.3089
vn 0.6611 -0.7499 -0.0247
vn 0.3045 -0.9525 -0.0036
vn 0.6617 -0.7278 0.1803
vn 0.3073 -0.9241 0.2273
vn -0.3045 -0.9525 -0.0036
vn -0.3073 -0.9241 0.2273
vn -0.6617 -0.7278 0.1803
vn -0.6611 -0.7499 -0.0247
vn 0.6680 -0.6517 0.3593
vn 0.3080 -0.8481 0.4310
vn 0.6741 -0.5558 0.4865
vn 0.3133 -0.7493 0.5834
vn -0.3080 -0.8481 0.4310
vn -0.3133 -0.7493 0.5834
vn -0.6741 -0.5558 0.4865
vn -0.6680 -0.6517 0.3593
vn 0.6845 -0.4013 0.6087
vn 0.3194 -0.5775 0.7513
vn -0.3194 -0.5775 0.7513
vn -0.6845 -0.4013 0.6087
vn 0.5712 0.8119 -0.1203
vn 0.6268 0.7764 -0.0657
vn 0.9068 0.1741 -0.3840
vn 0.8360 0.3025 -0.4579
vn 0.6588 0.7488 -0.0732
vn 0.9496 0.0716 -0.3053
vn 0.6714 0.7386 -0.0600
vn 0.9801 0.0120 -0.1982
vn 0.6803 0.7283 -0.0821
vn 0.9908 -0.0150 -0.1347
vn 0.6908 0.7113 -0.1294
vn 0.9966 -0.0319 -0.0754
vn 0.7040 0.6831 -0.1946
vn 0.9993 -0.0367 0.0041
vn 0.7118 0.6495 -0.2673
vn 0.9976 -0.0072 0.0694
vn 0.7285 0.5990 -0.3325
vn 0.9936 0.0351 0.1069
vn 0.7363 0.5487 -0.3960
vn 0.9889 0.0891 0.1190
vn -0.5712 0.8119 -0.1203
vn -0.6268 0.7764 -0.0657
vn -0.0000 0.9951 0.0984
vn -0.0000 0.9993 0.0381
vn -0.6588 0.7488 -0.0732
vn -0.0000 0.9988 0.0490
vn -0.6714 0.7386 -0.0600
vn -0.0000 1.0000 0.0083
vn -0.6803 0.7283 -0.0821
vn -0.0000 0.9986 -0.0527
vn -0.6908 0.7113 -0.1294
vn -0.0000 0.9890 -0.1477
vn -0.7040 0.6831 -0.1946
vn -0.0000 0.9609 -0.2767
vn -0.7118 0.6495 -0.2673
vn -0.0000 0.9084 -0.4182
vn -0.7285 0.5990 -0.3325
vn -0.0000 0.8303 -0.5574
vn -0.7363 0.5487 -0.3960
vn -0.0000 0.7423 -0.6700
vn -0.9068 0.1741 -0.3840
vn -0.8360 0.3025 -0.4579
vn -0.9496 0.0716 -0.3053
vn -0.9801 0.0120 -0.1982
vn -0.9908 -0.0150 -0.1347
vn -0.9966 -0.0319 -0.0754
vn -0.9993 -0.0367 0.0041
vn -0.9976 -0.0072 0.0694
vn -0.9936 0.0351 0.1069
vn -0.9889 0.0891 0.1190
vn 0.9443 0.3236 -0.0604
vn 0.6551 0.3647 0.6617
vn 0.6203 0.2744 -0.7348
vn 0.3860 0.6921 -0.6099
vn 0.5436 0.8165 -0.1943
vn 0.4518 0.8182 0.3557
vn -0.6615 -0.1709 -0.7302
vn -0.9967 -0.0806 -0.0029
vn -0.9847 -0.1741 -0.0055
vn -0.6540 -0.2440 -0.7161
vn -0.6660 -0.0246 0.7456
vn -0.6401 -0.1214 0.7586
vn -0.6695 0.0013 0.7428
vn -0.9970 -0.0768 0.0074
vn -0.6690 -0.1346 -0.7309
vn -0.2842 -0.0228 0.9585
vn -0.2854 -0.1007 0.9531
vn 0.2842 -0.0228 0.9585
vn 0.2854 -0.1007 0.9531
vn 0.2937 0.0405 0.9550
vn -0.2937 0.0405 0.9550
vn -0.0000 -0.2048 -0.9788
vn -0.0000 -0.2675 -0.9635
vn -0.0000 -0.1488 -0.9889
vn -0.0000 0.7219 -0.6920
vn 0.1609 0.9487 -0.2720
vn -0.3860 0.6921 -0.6099
vn -0.5436 0.8165 -0.1943
vn -0.1609 0.9487 -0.2720
vn -0.4518 0.8182 0.3557
vn -0.2557 0.8668 0.4281
vn 0.2557 0.8668 0.4281
vn -0.9443 0.3236 -0.0604
vn -0.6203 0.2744 -0.7348
vn -0.6551 0.3647 0.6617
vn -0.2885 0.3385 0.8957
vn 0.2885 0.3385 0.8957
vn -0.0000 0.2540 -0.9672
vn 0.6891 0.3899 -0.6108
vn -0.0000 0.4861 -0.8739
vn -0.0000 0.5415 -0.8407
vn 0.7078 0.3985 -0.5832
vn -0.6891 0.3899 -0.6108
vn -0.7078 0.3985 -0.5832
vn -0.0000 0.0401 -0.9992
vn -0.7016 0.0665 -0.7094
vn -0.6797 0.0003 -0.7335
vn -0.0000 -0.0382 -0.9993
vn 0.7016 0.0665 -0.7094
vn 0.6797 0.0003 -0.7335
vn -0.0000 -0.1506 -0.9886
vn 0.6670 -0.1086 -0.7371
vn -0.6670 -0.1086 -0.7371
vn -0.5990 0.5329 0.5976
vn -0.2217 0.6021 0.7671
vn -0.1798 0.7581 0.6269
vn -0.6344 0.6084 0.4769
vn 0.2217 0.6021 0.7671
vn 0.5990 0.5329 0.5976
vn 0.6344 0.6084 0.4769
vn 0.1798 0.7581 0.6269
vn 0.2619 0.3819 0.8863
vn 0.5827 0.3491 0.7338
vn 0.6360 0.2637 0.7252
vn 0.2703 0.2953 0.9164
vn -0.5827 0.3491 0.7338
vn -0.2619 0.3819 0.8863
vn -0.2703 0.2953 0.9164
vn -0.6360 0.2637 0.7252
vn -0.2797 0.1573 0.9471
vn -0.6398 0.1328 0.7570
vn 0.6397 0.1328 0.7570
vn 0.2797 0.1573 0.9471
vn -0.9483 0.3146 0.0431
vn -0.9407 0.3340 -0.0596
vn -0.9791 0.1923 0.0657
vn -0.9925 0.1224 0.0014
vn -0.9999 0.0150 0.0069
vn 0.9483 0.3146 0.0431
vn 0.9407 0.3340 -0.0596
vn 0.9791 0.1923 0.0657
vn 0.9925 0.1224 0.0014
vn 0.9999 0.0150 0.0069
vn -0.1578 0.8486 -0.5049
vn -0.0000 0.8779 -0.4788
vn -0.0423 0.7465 -0.6640
vn -0.2065 0.7291 -0.6525
vn 0.1578 0.8486 -0.5049
vn 0.2065 0.7291 -0.6525
vn 0.0423 0.7465 -0.6640
vn -0.6703 0.6500 0.3580
vn -0.0000 0.8468 0.5319
vn -0.0000 0.9928 0.1195
vn -0.5113 0.8589 -0.0300
vn 0.6703 0.6500 0.3580
vn 0.5113 0.8589 -0.0300
vn -0.9798 0.1413 -0.1418
vn -0.7572 0.4815 -0.4413
vn 0.9798 0.1413 -0.1418
vn 0.7572 0.4815 -0.4413
vn -0.6894 -0.5065 -0.5179
vn -0.6477 -0.6962 -0.3094
vn -0.9363 -0.2611 0.2350
vn -0.9979 -0.0538 0.0370
vn -0.5380 -0.0557 -0.8411
vn -0.7560 0.3950 -0.5220
vn -0.5057 0.8355 -0.2150
vn -0.6418 0.2292 0.7318
vn -0.6945 0.4846 0.5318
vn -0.0000 0.4467 0.8947
vn -0.0000 0.7148 0.6994
vn -0.0000 0.9973 -0.0732
vn 0.5057 0.8355 -0.2150
vn 0.6418 0.2292 0.7318
vn 0.6945 0.4846 0.5318
vn 0.9363 -0.2611 0.2350
vn 0.9979 -0.0538 0.0370
vn 0.7560 0.3950 -0.5220
vn 0.5380 -0.0557 -0.8411
vn 0.6477 -0.6962 -0.3094
vn 0.6894 -0.5065 -0.5179
vn 0.3380 -0.7924 -0.5078
vn 0.3377 -0.6218 -0.7066
vn 0.2852 -0.2471 -0.9261
vn -0.2852 -0.2471 -0.9261
vn -0.3377 -0.6218 -0.7066
vn -0.3380 -0.7924 -0.5078
vn 0.6678 -0.3299 -0.6673
vn 0.3138 -0.4452 -0.8387
vn -0.3138 -0.4452 -0.8387
vn -0.6678 -0.3299 -0.6673
vn 0.6768 0.6459 0.3531
vn 0.9875 0.1043 -0.1178
vn -0.6768 0.6459 0.3531
vn -0.0000 0.8648 0.5022
vn -0.9875 0.1043 -0.1178
vt 0.834886 0.413228
vt 0.907041 0.467173
vt 0.870089 0.517730
vt 0.792819 0.476686
vt 0.948218 0.510586
vt 0.920496 0.547876
vt 0.898453 0.589823
vt 0.839680 0.571687
vt 0.762379 0.554383
vt 0.833086 0.627132
vt 0.753602 0.627004
vt 0.893404 0.627230
vt 0.898332 0.664653
vt 0.839501 0.682599
vt 0.762144 0.699652
vt 0.869735 0.736653
vt 0.792333 0.777447
vt 0.920239 0.706670
vt 0.947840 0.744050
vt 0.906523 0.787330
vt 0.834195 0.841041
vt 0.938017 0.820885
vt 0.864622 0.889925
vt 0.976272 0.763512
vt 0.938643 0.433719
vt 0.976713 0.491215
vt 0.865471 0.364442
vt 0.459647 0.203261
vt 0.455541 0.180247
vt 0.461450 0.179959
vt 0.463542 0.201849
vt 0.553226 0.179884
vt 0.549292 0.202927
vt 0.545387 0.201544
vt 0.547316 0.179640
vt 0.540215 0.199322
vt 0.537579 0.181986
vt 0.471203 0.182233
vt 0.468697 0.199588
vt 0.431403 0.084889
vt 0.453727 0.079707
vt 0.457855 0.095476
vt 0.435304 0.101839
vt 0.475509 0.077766
vt 0.477679 0.092741
vt 0.479291 0.105220
vt 0.461460 0.109170
vt 0.442969 0.116845
vt 0.034871 0.696238
vt 0.052935 0.722926
vt 0.016217 0.741440
vt 0.006148 0.705259
vt 0.083858 0.755987
vt 0.041433 0.789763
vt 0.016590 0.510191
vt 0.041962 0.461950
vt 0.084277 0.495862
vt 0.053249 0.528823
vt 0.006406 0.546340
vt 0.035099 0.555453
vt 0.153675 0.805131
vt 0.110822 0.864148
vt 0.238806 0.848667
vt 0.204221 0.924111
vt 0.111589 0.387789
vt 0.205181 0.328127
vt 0.239523 0.403682
vt 0.154252 0.446944
vt 0.328621 0.881084
vt 0.304605 0.967740
vt 0.420375 0.901349
vt 0.410328 0.991876
vt 0.305705 0.284822
vt 0.411505 0.261026
vt 0.421261 0.351585
vt 0.329441 0.371554
vt 0.521241 0.905940
vt 0.524944 0.994528
vt 0.628657 0.899648
vt 0.644170 0.979653
vt 0.526130 0.258743
vt 0.645308 0.274002
vt 0.629537 0.353957
vt 0.522141 0.347319
vt 0.737850 0.878960
vt 0.763421 0.945060
vt 0.764448 0.308980
vt 0.738663 0.374998
vt 0.073287 0.655651
vt 0.096509 0.666260
vt 0.079319 0.698091
vt 0.057456 0.679047
vt 0.127123 0.678108
vt 0.111215 0.720149
vt 0.193044 0.694454
vt 0.178747 0.751690
vt 0.269665 0.709518
vt 0.258433 0.780677
vt 0.351303 0.722032
vt 0.342137 0.804222
vt 0.433560 0.729793
vt 0.427278 0.819832
vt 0.519019 0.732405
vt 0.519027 0.822401
vt 0.604148 0.727515
vt 0.614304 0.816247
vt 0.683369 0.715277
vt 0.706236 0.801830
vt 0.073383 0.596163
vt 0.096639 0.585630
vt 0.101799 0.625953
vt 0.078021 0.625914
vt 0.127291 0.573880
vt 0.131746 0.626001
vt 0.193264 0.557747
vt 0.197413 0.626107
vt 0.269934 0.542929
vt 0.273641 0.626230
vt 0.351611 0.530679
vt 0.355241 0.626361
vt 0.433893 0.523182
vt 0.436983 0.626493
vt 0.519360 0.520847
vt 0.519511 0.626626
vt 0.604473 0.526011
vt 0.599263 0.626755
vt 0.683655 0.538504
vt 0.675686 0.626878
vt 0.079552 0.553743
vt 0.057629 0.572717
vt 0.111519 0.531788
vt 0.179152 0.500465
vt 0.258931 0.471735
vt 0.342710 0.448460
vt 0.427901 0.433124
vt 0.519658 0.430851
vt 0.614915 0.437312
vt 0.706801 0.452026
vt 0.465388 0.121471
vt 0.452085 0.131558
vt 0.480154 0.116216
vt 0.481389 0.125719
vt 0.469489 0.132327
vt 0.459066 0.139810
vt 0.526160 0.078075
vt 0.547916 0.080281
vt 0.543596 0.095999
vt 0.523807 0.093022
vt 0.570175 0.085735
vt 0.566068 0.102636
vt 0.558221 0.117548
vt 0.539825 0.109647
vt 0.522043 0.105481
vt 0.597899 0.094870
vt 0.592401 0.113488
vt 0.403570 0.093685
vt 0.408841 0.112369
vt 0.417229 0.132918
vt 0.583762 0.133933
vt 0.500838 0.077256
vt 0.500746 0.092360
vt 0.500673 0.104346
vt 0.500505 0.131938
vt 0.482022 0.154384
vt 0.519695 0.125953
vt 0.531514 0.132705
vt 0.518713 0.154607
vt 0.541845 0.140315
vt 0.544487 0.161062
vt 0.456171 0.160523
vt 0.535747 0.121900
vt 0.521046 0.116466
vt 0.548926 0.132149
vt 0.564377 0.154249
vt 0.436366 0.153469
vt 0.500601 0.116254
vt 0.915862 0.660173
vt 0.910824 0.627258
vt 0.928479 0.627287
vt 0.933388 0.656937
vt 0.915969 0.594360
vt 0.933484 0.597653
vt 0.501158 0.024724
vt 0.534022 0.024733
vt 0.531431 0.045822
vt 0.501034 0.045138
vt 0.468297 0.024333
vt 0.470631 0.045451
vt 0.500933 0.061756
vt 0.473165 0.062202
vt 0.528693 0.062541
vt 0.958330 0.529683
vt 0.986146 0.515005
vt 0.991861 0.543650
vt 0.963886 0.554525
vt 0.985782 0.739753
vt 0.958013 0.724986
vt 0.963650 0.700162
vt 0.991589 0.711128
vt 0.380458 0.038969
vt 0.410953 0.027676
vt 0.420249 0.050975
vt 0.391618 0.061386
vt 0.591322 0.028776
vt 0.621676 0.040439
vt 0.610244 0.062718
vt 0.581742 0.051959
vt 0.603615 0.078759
vt 0.575919 0.069216
vt 0.425862 0.068302
vt 0.398051 0.077506
vt 0.935898 0.559330
vt 0.946817 0.574303
vt 0.563237 0.025549
vt 0.556912 0.047524
vt 0.552366 0.064539
vt 0.935678 0.695267
vt 0.946644 0.680330
vt 0.439075 0.024793
vt 0.445131 0.046842
vt 0.449469 0.063912
vt 0.522297 0.217356
vt 0.504514 0.215136
vt 0.516091 0.193426
vt 0.532185 0.209324
vt 0.486749 0.217488
vt 0.476801 0.209530
vt 0.492777 0.193513
vt 0.525833 0.226016
vt 0.504564 0.228503
vt 0.504548 0.224084
vt 0.524625 0.222549
vt 0.483277 0.226174
vt 0.484459 0.222699
vt 0.539877 0.217020
vt 0.537136 0.214310
vt 0.469167 0.217283
vt 0.471887 0.214552
vt 0.560599 0.206779
vt 0.568508 0.210139
vt 0.552543 0.229722
vt 0.546879 0.223942
vt 0.026286 0.573186
vt 0.044990 0.585339
vt 0.057855 0.603330
vt 0.530499 0.242063
vt 0.528309 0.234713
vt 0.504624 0.244726
vt 0.504600 0.238220
vt 0.062406 0.625889
vt 0.057782 0.648433
vt 0.478730 0.242256
vt 0.480866 0.234889
vt 0.456595 0.230078
vt 0.462216 0.224256
vt 0.044858 0.666383
vt 0.026115 0.678477
vt 0.440485 0.210615
vt 0.448369 0.207196
vt 0.431419 0.186775
vt 0.440091 0.183002
vt 0.004531 0.684390
vt 0.004722 0.567203
vt 0.568696 0.182524
vt 0.577397 0.186232
vt 0.454571 0.204911
vt 0.448629 0.181397
vt 0.560147 0.180982
vt 0.554380 0.204539
vt 0.482182 0.230210
vt 0.465909 0.220543
vt 0.526959 0.230044
vt 0.504580 0.232882
vt 0.543159 0.220256
s 1
usemtl banana
f 13/1/1 58/2/2 165/3/3 108/4/4
f 58/2/2 2/5/5 59/6/6 165/3/3
f 165/3/3 59/6/6 4/7/7 74/8/8
f 108/4/4 165/3/3 74/8/8 14/9/9
f 14/9/9 74/8/8 166/10/10 103/11/11
f 74/8/8 4/7/7 62/12/12 166/10/10
f 166/10/10 62/12/12 8/13/13 79/14/14
f 103/11/11 166/10/10 79/14/14 19/15/15
f 19/15/15 79/14/14 167/16/16 98/17/17
f 79/14/14 8/13/13 65/18/18 167/16/16
f 167/16/16 65/18/18 6/19/19 84/20/20
f 98/17/17 167/16/16 84/20/20 24/21/21
f 24/21/21 84/20/20 168/22/22 93/23/23
f 84/20/20 6/19/19 68/24/24 168/22/22
f 168/25/25 68/26/26 2/5/5 58/2/2
f 93/27/27 168/25/25 58/2/2 13/1/1
f 5/28/28 67/29/29 169/30/30 146/31/31
f 67/32/32 1/33/33 145/34/34 169/35/35
f 169/35/35 145/34/34 46/36/36 144/37/37
f 146/31/31 169/30/30 144/38/38 48/39/39
f 39/40/40 140/41/41 170/42/42 127/43/43
f 140/41/41 38/44/44 113/45/45 170/42/42
f 170/42/42 113/45/45 31/46/46 111/47/47
f 127/43/43 170/42/42 111/47/47 32/48/48
f 51/49/49 151/50/50 171/51/51 156/52/52
f 151/50/50 28/53/53 89/54/54 171/51/51
f 171/55/55 89/56/56 9/57/57 69/58/58
f 156/59/59 171/55/55 69/58/58 52/60/60
f 28/53/53 88/61/61 172/62/62 89/54/54
f 88/61/61 27/63/63 90/64/64 172/62/62
f 172/65/65 90/66/66 10/67/67 70/68/68
f 89/56/56 172/65/65 70/68/68 9/57/57
f 27/63/63 87/69/69 173/70/70 90/64/64
f 87/69/69 26/71/71 91/72/72 173/70/70
f 173/73/73 91/74/74 11/75/75 71/76/76
f 90/66/66 173/73/73 71/76/76 10/67/67
f 26/71/71 86/77/77 174/78/78 91/72/72
f 86/77/77 25/79/79 92/80/80 174/78/78
f 174/81/81 92/82/82 12/83/83 72/84/84
f 91/74/74 174/81/81 72/84/84 11/75/75
f 25/79/79 85/85/85 175/86/86 92/80/80
f 85/85/85 24/21/21 93/23/23 175/86/86
f 175/87/87 93/27/27 13/1/1 73/88/88
f 92/82/82 175/87/87 73/88/88 12/83/83
f 50/89/89 150/90/90 176/91/91 155/92/92
f 150/90/90 23/93/93 94/94/94 176/91/91
f 176/91/91 94/94/94 28/53/53 151/50/50
f 155/92/92 176/91/91 151/50/50 51/49/49
f 23/93/93 83/95/95 177/96/96 94/94/94
f 83/95/95 22/97/97 95/98/98 177/96/96
f 177/96/96 95/98/98 27/63/63 88/61/61
f 94/94/94 177/96/96 88/61/61 28/53/53
f 22/97/97 82/99/99 178/100/100 95/98/98
f 82/99/99 21/101/101 96/102/102 178/100/100
f 178/100/100 96/102/102 26/71/71 87/69/69
f 95/98/98 178/100/100 87/69/69 27/63/63
f 21/101/101 81/103/103 179/104/104 96/102/102
f 81/103/103 20/105/105 97/106/106 179/104/104
f 179/104/104 97/106/106 25/79/79 86/77/77
f 96/102/102 179/104/104 86/77/77 26/71/71
f 20/105/105 80/107/107 180/108/108 97/106/106
f 80/107/107 19/15/15 98/17/17 180/108/108
f 180/108/108 98/17/17 24/21/21 85/85/85
f 97/106/106 180/108/108 85/85/85 25/79/79
f 49/109/109 149/110/110 181/111/111 154/112/112
f 149/110/110 18/113/113 99/114/114 181/111/111
f 181/111/111 99/114/114 23/93/93 150/90/90
f 154/112/112 181/111/111 150/90/90 50/89/89
f 18/113/113 78/115/115 182/116/116 99/114/114
f 78/115/115 17/117/117 100/118/118 182/116/116
f 182/116/116 100/118/118 22/97/97 83/95/95
f 99/114/114 182/116/116 83/95/95 23/93/93
f 17/117/117 77/119/119 183/120/120 100/118/118
f 77/119/119 16/121/121 101/122/122 183/120/120
f 183/120/120 101/122/122 21/101/101 82/99/99
f 100/118/118 183/120/120 82/99/99 22/97/97
f 16/121/121 76/123/123 184/124/124 101/122/122
f 76/123/123 15/125/125 102/126/126 184/124/124
f 184/124/124 102/126/126 20/105/105 81/103/103
f 101/122/122 184/124/124 81/103/103 21/101/101
f 15/125/125 75/127/127 185/128/128 102/126/126
f 75/127/127 14/9/9 103/11/11 185/128/128
f 185/128/128 103/11/11 19/15/15 80/107/107
f 102/126/126 185/128/128 80/107/107 20/105/105
f 52/60/60 69/58/58 186/129/129 153/130/130
f 69/58/58 9/57/57 104/131/131 186/129/129
f 186/129/129 104/131/131 18/113/113 149/110/110
f 153/130/130 186/129/129 149/110/110 49/109/109
f 9/57/57 70/68/68 187/132/132 104/131/131
f 70/68/68 10/67/67 105/133/133 187/132/132
f 187/132/132 105/133/133 17/117/117 78/115/115
f 104/131/131 187/132/132 78/115/115 18/113/113
f 10/67/67 71/76/76 188/134/134 105/133/133
f 71/76/76 11/75/75 106/135/135 188/134/134
f 188/134/134 106/135/135 16/121/121 77/119/119
f 105/133/133 188/134/134 77/119/119 17/117/117
f 11/75/75 72/84/84 189/136/136 106/135/135
f 72/84/84 12/83/83 107/137/137 189/136/136
f 189/136/136 107/137/137 15/125/125 76/123/123
f 106/135/135 189/136/136 76/123/123 16/121/121
f 12/83/83 73/88/88 190/138/138 107/137/137
f 73/88/88 13/1/1 108/4/4 190/138/138
f 190/138/138 108/4/4 14/9/9 75/127/127
f 107/137/137 190/138/138 75/127/127 15/125/125
f 32/48/48 111/47/47 191/139/139 122/140/140
f 111/47/47 31/46/46 121/141/141 191/139/139
f 191/139/139 121/141/141 35/142/142 119/143/143
f 122/140/140 191/139/139 119/143/143 36/144/144
f 43/145/145 138/146/146 192/147/147 131/148/148
f 138/146/146 42/149/149 115/150/150 192/147/147
f 192/147/147 115/150/150 29/151/151 109/152/152
f 131/148/148 192/147/147 109/152/152 30/153/153
f 42/149/149 136/154/154 193/155/155 115/150/150
f 136/156/156 39/40/40 127/43/43 193/157/157
f 193/157/157 127/43/43 32/48/48 112/158/158
f 115/150/150 193/155/155 112/159/159 29/151/151
f 38/44/44 134/160/160 194/161/161 113/45/45
f 134/160/160 43/145/145 131/148/148 194/161/161
f 194/161/161 131/148/148 30/153/153 110/162/162
f 113/45/45 194/161/161 110/162/162 31/46/46
f 35/142/142 118/163/163 195/164/164 119/143/143
f 118/163/163 34/165/165 117/166/166 195/167/167
f 195/167/167 117/166/166 33/168/168 120/169/169
f 119/143/143 195/164/164 120/170/170 36/144/144
f 30/153/153 109/152/152 196/171/171 124/172/172
f 109/152/152 29/151/151 123/173/173 196/171/171
f 196/171/171 123/173/173 33/168/168 117/166/166
f 124/172/172 196/171/171 117/166/166 34/165/165
f 29/151/151 112/159/159 197/174/174 123/173/173
f 112/158/158 32/48/48 122/140/140 197/175/175
f 197/175/175 122/140/140 36/144/144 120/170/170
f 123/173/173 197/174/174 120/169/169 33/168/168
f 31/46/46 110/162/162 198/176/176 121/141/141
f 110/162/162 30/153/153 124/172/172 198/176/176
f 198/176/176 124/172/172 34/165/165 118/163/163
f 121/141/141 198/176/176 118/163/163 35/142/142
f 221/177/177 223/178/178 199/179/179 125/180/180
f 223/178/178 220/181/181 116/182/182 199/179/179
f 199/183/183 116/184/184 44/185/185 133/186/186
f 125/187/187 199/183/183 133/186/186 37/188/188
f 37/188/188 133/186/186 200/189/189 126/190/190
f 133/186/186 44/185/185 132/191/191 200/189/189
f 200/189/189 132/191/191 43/145/145 134/160/160
f 126/190/190 200/189/189 134/160/160 38/44/44
f 222/192/192 224/193/193 201/194/194 129/195/195
f 224/196/196 219/197/197 114/198/198 201/199/199
f 201/200/200 114/201/201 40/202/202 135/203/203
f 129/204/204 201/205/205 135/206/206 41/207/207
f 41/207/207 135/206/206 202/208/208 130/209/209
f 135/203/203 40/202/202 128/210/210 202/211/211
f 202/211/211 128/210/210 39/40/40 136/156/156
f 130/209/209 202/208/208 136/154/154 42/149/149
f 220/181/181 225/212/212 203/213/213 116/182/182
f 225/212/212 222/192/192 129/195/195 203/213/213
f 203/214/214 129/204/204 41/207/207 137/215/215
f 116/184/184 203/214/214 137/215/215 44/185/185
f 44/185/185 137/215/215 204/216/216 132/191/191
f 137/215/215 41/207/207 130/209/209 204/216/216
f 204/216/216 130/209/209 42/149/149 138/146/146
f 132/191/191 204/216/216 138/146/146 43/145/145
f 219/197/197 226/217/217 205/218/218 114/198/198
f 226/217/217 221/177/177 125/180/180 205/218/218
f 205/219/219 125/187/187 37/188/188 139/220/220
f 114/201/201 205/219/219 139/220/220 40/202/202
f 40/202/202 139/220/220 206/221/221 128/210/210
f 139/220/220 37/188/188 126/190/190 206/221/221
f 206/221/221 126/190/190 38/44/44 140/41/41
f 128/210/210 206/221/221 140/41/41 39/40/40
f 45/222/222 142/223/223 207/224/224 141/225/225
f 142/223/223 47/226/226 143/227/227 207/228/228
f 207/228/228 143/227/227 48/39/39 144/38/38
f 141/225/225 207/224/224 144/37/37 46/36/36
f 3/229/229 61/230/230 208/231/231 148/232/232
f 61/230/230 7/233/233 147/234/234 208/231/231
f 208/231/231 147/234/234 47/226/226 142/223/223
f 148/232/232 208/231/231 142/223/223 45/222/222
f 1/33/33 57/235/235 209/236/236 145/34/34
f 57/235/235 3/229/229 148/232/232 209/236/236
f 209/236/236 148/232/232 45/222/222 141/225/225
f 145/34/34 209/236/236 141/225/225 46/36/36
f 7/233/233 64/237/237 210/238/238 147/234/234
f 64/237/237 5/28/28 146/31/31 210/238/238
f 210/238/238 146/31/31 48/39/39 143/227/227
f 147/234/234 210/238/238 143/227/227 47/226/226
f 56/239/239 152/240/240 211/241/241 164/242/242
f 152/243/243 52/60/60 153/130/130 211/244/244
f 211/244/244 153/130/130 49/109/109 157/245/245
f 164/242/242 211/241/241 157/246/246 53/247/247
f 53/247/247 157/246/246 212/248/248 163/249/249
f 157/245/245 49/109/109 154/112/112 212/250/250
f 212/250/250 154/112/112 50/89/89 158/251/251
f 163/249/249 212/248/248 158/252/252 54/253/253
f 54/253/253 158/252/252 213/254/254 162/255/255
f 158/251/251 50/89/89 155/92/92 213/256/256
f 213/256/256 155/92/92 51/49/49 159/257/257
f 162/255/255 213/254/254 159/258/258 55/259/259
f 55/259/259 159/258/258 214/260/260 161/261/261
f 159/257/257 51/49/49 156/52/52 214/262/262
f 214/263/263 156/59/59 52/60/60 152/243/243
f 161/264/264 214/265/265 152/240/240 56/239/239
f 5/28/28 66/266/266 215/267/267 67/29/29
f 66/266/266 55/259/259 161/261/261 215/267/267
f 215/268/268 161/264/264 56/239/239 160/269/269
f 67/32/32 215/268/268 160/269/269 1/33/33
f 7/233/233 63/270/270 216/271/271 64/237/237
f 63/270/270 54/253/253 162/255/255 216/271/271
f 216/271/271 162/255/255 55/259/259 66/266/266
f 64/237/237 216/271/271 66/266/266 5/28/28
f 3/229/229 60/272/272 217/273/273 61/230/230
f 60/272/272 53/247/247 163/249/249 217/273/273
f 217/273/273 163/249/249 54/253/253 63/270/270
f 61/230/230 217/273/273 63/270/270 7/233/233
f 1/33/33 160/269/269 218/274/274 57/235/235
f 160/269/269 56/239/239 164/242/242 218/274/274
f 218/274/274 164/242/242 53/247/247 60/272/272
f 57/235/235 218/274/274 60/272/272 3/229/229
f 65/18/18 8/13/13 221/177/177 226/217/217
f 6/19/19 65/18/18 226/217/217 219/197/197
f 59/6/6 2/5/5 222/192/192 225/212/212
f 4/7/7 59/6/6 225/212/212 220/181/181
f 68/24/24 6/19/19 219/197/197 224/196/196
f 2/5/5 68/26/26 224/193/193 222/192/192
f 62/12/12 4/7/7 220/181/181 223/178/178
f 8/13/13 62/12/12 223/178/178 221/177/177
